<mxfile host="app.diagrams.net" modified="2020-08-23T23:22:23.555Z" agent="5.0 (Windows NT 10.0; Win64; x64) AppleWebKit/537.36 (KHTML, like Gecko) Chrome/84.0.4147.135 Safari/537.36" etag="Fg4tDkC9XYycJwIfdAIa" version="13.6.4" type="github">
  <diagram id="kgpKYQtTHZ0yAKxKKP6v" name="Page-1">
    <mxGraphModel dx="1038" dy="499" grid="1" gridSize="10" guides="1" tooltips="1" connect="1" arrows="1" fold="1" page="1" pageScale="1" pageWidth="850" pageHeight="1100" math="0" shadow="0" extFonts="Old Standard TT^https://fonts.googleapis.com/css?family=Old+Standard+TT">
      <root>
        <mxCell id="0" />
        <mxCell id="1" parent="0" />
        <mxCell id="BJgerjKeEdl1azDdf-ck-2" value="" style="endArrow=none;dashed=1;html=1;" parent="1" edge="1">
          <mxGeometry width="50" height="50" relative="1" as="geometry">
            <mxPoint x="250" y="810" as="sourcePoint" />
            <mxPoint x="250" y="158" as="targetPoint" />
          </mxGeometry>
        </mxCell>
        <mxCell id="won6xVCmw4BPkQLx-nKb-10" value="&lt;font face=&quot;Old Standard TT&quot; size=&quot;1&quot;&gt;&lt;b style=&quot;font-size: 14px&quot;&gt;:MailServer&lt;/b&gt;&lt;/font&gt;" style="shape=umlLifeline;perimeter=lifelinePerimeter;whiteSpace=wrap;html=1;container=1;collapsible=0;recursiveResize=0;outlineConnect=0;" parent="1" vertex="1">
          <mxGeometry x="700" y="90" width="120" height="720" as="geometry" />
        </mxCell>
        <mxCell id="scSC1ONJ-kp-0vuA-Wr2-20" value="" style="html=1;points=[];perimeter=orthogonalPerimeter;strokeWidth=1;fontFamily=Old Standard TT;fontSize=14;" vertex="1" parent="won6xVCmw4BPkQLx-nKb-10">
          <mxGeometry x="55" y="575" width="10" height="16" as="geometry" />
        </mxCell>
        <mxCell id="won6xVCmw4BPkQLx-nKb-11" value="&lt;font face=&quot;Old Standard TT&quot; size=&quot;1&quot;&gt;&lt;b style=&quot;font-size: 13px&quot;&gt;:PostgreSQL&lt;/b&gt;&lt;/font&gt;" style="shape=umlLifeline;perimeter=lifelinePerimeter;whiteSpace=wrap;html=1;container=1;collapsible=0;recursiveResize=0;outlineConnect=0;" parent="1" vertex="1">
          <mxGeometry x="880" y="90" width="100" height="720" as="geometry" />
        </mxCell>
        <mxCell id="scSC1ONJ-kp-0vuA-Wr2-23" value="" style="html=1;points=[];perimeter=orthogonalPerimeter;strokeWidth=1;fontFamily=Old Standard TT;fontSize=14;" vertex="1" parent="won6xVCmw4BPkQLx-nKb-11">
          <mxGeometry x="45" y="605" width="10" height="80" as="geometry" />
        </mxCell>
        <mxCell id="scSC1ONJ-kp-0vuA-Wr2-26" value="" style="html=1;points=[];perimeter=orthogonalPerimeter;strokeWidth=1;fontFamily=Old Standard TT;fontSize=14;" vertex="1" parent="won6xVCmw4BPkQLx-nKb-11">
          <mxGeometry x="50" y="635" width="10" height="28" as="geometry" />
        </mxCell>
        <mxCell id="scSC1ONJ-kp-0vuA-Wr2-27" value="add&lt;br&gt;script" style="edgeStyle=orthogonalEdgeStyle;html=1;align=left;spacingLeft=2;endArrow=block;rounded=0;entryX=1;entryY=0;labelBackgroundColor=none;fontFamily=Old Standard TT;fontSize=14;" edge="1" target="scSC1ONJ-kp-0vuA-Wr2-26" parent="won6xVCmw4BPkQLx-nKb-11">
          <mxGeometry relative="1" as="geometry">
            <mxPoint x="55" y="615" as="sourcePoint" />
            <Array as="points">
              <mxPoint x="80" y="615" />
            </Array>
          </mxGeometry>
        </mxCell>
        <mxCell id="won6xVCmw4BPkQLx-nKb-28" value="&lt;font face=&quot;Old Standard TT&quot; style=&quot;font-size: 13px&quot;&gt;&lt;b&gt;Actor&lt;/b&gt;&lt;/font&gt;" style="shape=umlActor;verticalLabelPosition=bottom;verticalAlign=top;html=1;" parent="1" vertex="1">
          <mxGeometry x="235" y="80" width="30" height="60" as="geometry" />
        </mxCell>
        <mxCell id="won6xVCmw4BPkQLx-nKb-9" value="&lt;font face=&quot;Old Standard TT&quot; size=&quot;1&quot;&gt;&lt;b style=&quot;font-size: 14px&quot;&gt;:Flask App&lt;/b&gt;&lt;/font&gt;" style="shape=umlLifeline;perimeter=lifelinePerimeter;whiteSpace=wrap;html=1;container=1;collapsible=0;recursiveResize=0;outlineConnect=0;" parent="1" vertex="1">
          <mxGeometry x="360" y="90" width="100" height="720" as="geometry" />
        </mxCell>
        <mxCell id="BJgerjKeEdl1azDdf-ck-3" value="" style="html=1;points=[];perimeter=orthogonalPerimeter;" parent="won6xVCmw4BPkQLx-nKb-9" vertex="1">
          <mxGeometry x="45" y="181" width="10" height="170" as="geometry" />
        </mxCell>
        <mxCell id="BJgerjKeEdl1azDdf-ck-4" value="" style="html=1;points=[];perimeter=orthogonalPerimeter;" parent="won6xVCmw4BPkQLx-nKb-9" vertex="1">
          <mxGeometry x="50" y="211" width="10" height="40" as="geometry" />
        </mxCell>
        <mxCell id="BJgerjKeEdl1azDdf-ck-5" value="&lt;font face=&quot;Old Standard TT&quot; style=&quot;font-size: 14px&quot;&gt;run_script&lt;/font&gt;" style="edgeStyle=orthogonalEdgeStyle;html=1;align=left;spacingLeft=2;endArrow=block;rounded=0;entryX=1;entryY=0;" parent="won6xVCmw4BPkQLx-nKb-9" target="BJgerjKeEdl1azDdf-ck-4" edge="1">
          <mxGeometry relative="1" as="geometry">
            <mxPoint x="55" y="191" as="sourcePoint" />
            <Array as="points">
              <mxPoint x="80" y="191" />
            </Array>
          </mxGeometry>
        </mxCell>
        <mxCell id="scSC1ONJ-kp-0vuA-Wr2-8" value="" style="html=1;points=[];perimeter=orthogonalPerimeter;fontFamily=Old Standard TT;fontSize=14;" vertex="1" parent="won6xVCmw4BPkQLx-nKb-9">
          <mxGeometry x="45" y="369" width="10" height="53" as="geometry" />
        </mxCell>
        <mxCell id="scSC1ONJ-kp-0vuA-Wr2-17" value="" style="html=1;points=[];perimeter=orthogonalPerimeter;strokeWidth=1;fontFamily=Old Standard TT;fontSize=14;" vertex="1" parent="won6xVCmw4BPkQLx-nKb-9">
          <mxGeometry x="45" y="491" width="10" height="20" as="geometry" />
        </mxCell>
        <mxCell id="scSC1ONJ-kp-0vuA-Wr2-19" value="" style="html=1;points=[];perimeter=orthogonalPerimeter;strokeWidth=1;fontFamily=Old Standard TT;fontSize=14;" vertex="1" parent="won6xVCmw4BPkQLx-nKb-9">
          <mxGeometry x="44" y="567" width="10" height="126" as="geometry" />
        </mxCell>
        <mxCell id="BJgerjKeEdl1azDdf-ck-6" value="&lt;font face=&quot;Old Standard TT&quot; style=&quot;font-size: 14px&quot;&gt;POST&amp;nbsp; /run_script&lt;/font&gt;" style="html=1;verticalAlign=bottom;endArrow=block;" parent="1" edge="1">
          <mxGeometry width="80" relative="1" as="geometry">
            <mxPoint x="255" y="273" as="sourcePoint" />
            <mxPoint x="405" y="273" as="targetPoint" />
          </mxGeometry>
        </mxCell>
        <mxCell id="BJgerjKeEdl1azDdf-ck-7" value="" style="html=1;points=[];perimeter=orthogonalPerimeter;" parent="1" vertex="1">
          <mxGeometry x="245" y="271" width="10" height="511" as="geometry" />
        </mxCell>
        <mxCell id="won6xVCmw4BPkQLx-nKb-49" value="&lt;font face=&quot;Old Standard TT&quot; size=&quot;1&quot;&gt;&lt;b style=&quot;font-size: 14px&quot;&gt;:MPLS Network&lt;/b&gt;&lt;/font&gt;" style="shape=umlLifeline;perimeter=lifelinePerimeter;whiteSpace=wrap;html=1;container=1;collapsible=0;recursiveResize=0;outlineConnect=0;" parent="1" vertex="1">
          <mxGeometry x="520" y="90" width="120" height="720" as="geometry" />
        </mxCell>
        <mxCell id="scSC1ONJ-kp-0vuA-Wr2-3" value="" style="html=1;points=[];perimeter=orthogonalPerimeter;fontFamily=Old Standard TT;fontSize=14;" vertex="1" parent="won6xVCmw4BPkQLx-nKb-49">
          <mxGeometry x="55" y="291" width="10" height="60" as="geometry" />
        </mxCell>
        <mxCell id="scSC1ONJ-kp-0vuA-Wr2-9" value="" style="html=1;points=[];perimeter=orthogonalPerimeter;fontFamily=Old Standard TT;fontSize=14;" vertex="1" parent="won6xVCmw4BPkQLx-nKb-49">
          <mxGeometry x="55" y="371" width="10" height="50" as="geometry" />
        </mxCell>
        <mxCell id="scSC1ONJ-kp-0vuA-Wr2-11" value="output" style="html=1;verticalAlign=bottom;endArrow=open;dashed=1;endSize=8;exitX=0;exitY=0.95;fontFamily=Old Standard TT;fontSize=14;" edge="1" parent="won6xVCmw4BPkQLx-nKb-49" target="scSC1ONJ-kp-0vuA-Wr2-8">
          <mxGeometry relative="1" as="geometry">
            <mxPoint x="-15" y="419" as="targetPoint" />
            <mxPoint x="55" y="419" as="sourcePoint" />
          </mxGeometry>
        </mxCell>
        <mxCell id="scSC1ONJ-kp-0vuA-Wr2-15" value="" style="html=1;points=[];perimeter=orthogonalPerimeter;strokeWidth=1;fontFamily=Old Standard TT;fontSize=14;" vertex="1" parent="won6xVCmw4BPkQLx-nKb-49">
          <mxGeometry x="55" y="486" width="10" height="20" as="geometry" />
        </mxCell>
        <mxCell id="scSC1ONJ-kp-0vuA-Wr2-2" value="[for each device]" style="text;align=center;fontStyle=0;verticalAlign=middle;spacingLeft=3;spacingRight=3;strokeColor=none;rotatable=0;points=[[0,0.5],[1,0.5]];portConstraint=eastwest;fontFamily=Old Standard TT;fontSize=14;" vertex="1" parent="1">
          <mxGeometry x="290" y="384" width="110" height="26" as="geometry" />
        </mxCell>
        <mxCell id="scSC1ONJ-kp-0vuA-Wr2-4" value="connect" style="html=1;verticalAlign=bottom;endArrow=block;entryX=0;entryY=0;fontFamily=Old Standard TT;fontSize=14;" edge="1" target="scSC1ONJ-kp-0vuA-Wr2-3" parent="1">
          <mxGeometry relative="1" as="geometry">
            <mxPoint x="415" y="381.0000000000001" as="sourcePoint" />
          </mxGeometry>
        </mxCell>
        <mxCell id="scSC1ONJ-kp-0vuA-Wr2-5" value="connection accepted" style="html=1;verticalAlign=bottom;endArrow=open;dashed=1;endSize=8;exitX=0;exitY=0.95;fontFamily=Old Standard TT;fontSize=14;" edge="1" source="scSC1ONJ-kp-0vuA-Wr2-3" parent="1" target="BJgerjKeEdl1azDdf-ck-3">
          <mxGeometry relative="1" as="geometry">
            <mxPoint x="530" y="441" as="targetPoint" />
          </mxGeometry>
        </mxCell>
        <mxCell id="scSC1ONJ-kp-0vuA-Wr2-10" value="execute commands" style="html=1;verticalAlign=bottom;endArrow=block;entryX=0;entryY=0;fontFamily=Old Standard TT;fontSize=14;" edge="1" target="scSC1ONJ-kp-0vuA-Wr2-9" parent="1" source="scSC1ONJ-kp-0vuA-Wr2-8">
          <mxGeometry relative="1" as="geometry">
            <mxPoint x="505" y="461" as="sourcePoint" />
          </mxGeometry>
        </mxCell>
        <mxCell id="scSC1ONJ-kp-0vuA-Wr2-12" value="" style="line;strokeWidth=2;fillColor=none;align=left;verticalAlign=middle;spacingTop=-1;spacingLeft=3;spacingRight=3;rotatable=0;labelPosition=right;points=[];portConstraint=eastwest;fontFamily=Old Standard TT;fontSize=14;dashed=1;" vertex="1" parent="1">
          <mxGeometry x="310" y="531" width="390" height="8" as="geometry" />
        </mxCell>
        <mxCell id="scSC1ONJ-kp-0vuA-Wr2-13" value="[connection]" style="text;align=center;fontStyle=0;verticalAlign=middle;spacingLeft=3;spacingRight=3;strokeColor=none;rotatable=0;points=[[0,0.5],[1,0.5]];portConstraint=eastwest;fontFamily=Old Standard TT;fontSize=14;" vertex="1" parent="1">
          <mxGeometry x="318" y="440" width="80" height="26" as="geometry" />
        </mxCell>
        <mxCell id="scSC1ONJ-kp-0vuA-Wr2-14" value="[no connection]" style="text;align=center;fontStyle=0;verticalAlign=middle;spacingLeft=3;spacingRight=3;strokeColor=none;rotatable=0;points=[[0,0.5],[1,0.5]];portConstraint=eastwest;fontFamily=Old Standard TT;fontSize=14;" vertex="1" parent="1">
          <mxGeometry x="320" y="542" width="80" height="19" as="geometry" />
        </mxCell>
        <mxCell id="scSC1ONJ-kp-0vuA-Wr2-16" value="connection timeout" style="html=1;verticalAlign=bottom;endArrow=open;dashed=1;endSize=8;fontFamily=Old Standard TT;fontSize=14;" edge="1" parent="1" target="scSC1ONJ-kp-0vuA-Wr2-17">
          <mxGeometry relative="1" as="geometry">
            <mxPoint x="575" y="582" as="sourcePoint" />
            <mxPoint x="490" y="582" as="targetPoint" />
          </mxGeometry>
        </mxCell>
        <mxCell id="scSC1ONJ-kp-0vuA-Wr2-21" value="email: report" style="html=1;verticalAlign=bottom;endArrow=block;labelBackgroundColor=none;fontFamily=Old Standard TT;fontSize=14;" edge="1" parent="1">
          <mxGeometry x="0.3842" relative="1" as="geometry">
            <mxPoint x="414" y="668" as="sourcePoint" />
            <mxPoint x="755" y="668" as="targetPoint" />
            <mxPoint as="offset" />
          </mxGeometry>
        </mxCell>
        <mxCell id="scSC1ONJ-kp-0vuA-Wr2-24" value="add_script" style="html=1;verticalAlign=bottom;endArrow=block;entryX=0;entryY=0;labelBackgroundColor=none;fontFamily=Old Standard TT;fontSize=14;" edge="1" target="scSC1ONJ-kp-0vuA-Wr2-23" parent="1">
          <mxGeometry relative="1" as="geometry">
            <mxPoint x="414" y="695" as="sourcePoint" />
          </mxGeometry>
        </mxCell>
        <mxCell id="scSC1ONJ-kp-0vuA-Wr2-25" value="script" style="html=1;verticalAlign=bottom;endArrow=open;dashed=1;endSize=8;exitX=0;exitY=0.95;labelBackgroundColor=none;fontFamily=Old Standard TT;fontSize=14;" edge="1" source="scSC1ONJ-kp-0vuA-Wr2-23" parent="1" target="scSC1ONJ-kp-0vuA-Wr2-19">
          <mxGeometry relative="1" as="geometry">
            <mxPoint x="855" y="771" as="targetPoint" />
          </mxGeometry>
        </mxCell>
        <mxCell id="scSC1ONJ-kp-0vuA-Wr2-30" value="report" style="html=1;verticalAlign=bottom;endArrow=open;dashed=1;endSize=8;labelBackgroundColor=none;fontFamily=Old Standard TT;fontSize=14;" edge="1" parent="1">
          <mxGeometry relative="1" as="geometry">
            <mxPoint x="404" y="779.0000000000001" as="sourcePoint" />
            <mxPoint x="255" y="779.0000000000001" as="targetPoint" />
          </mxGeometry>
        </mxCell>
        <mxCell id="scSC1ONJ-kp-0vuA-Wr2-29" value="Authenticate" style="text;align=center;fontStyle=1;verticalAlign=middle;spacingLeft=3;spacingRight=3;strokeColor=none;rotatable=0;points=[[0,0.5],[1,0.5]];portConstraint=eastwest;fontFamily=Old Standard TT;fontSize=14;fillColor=#ffffff;" vertex="1" parent="1">
          <mxGeometry x="240" y="174" width="740" height="58" as="geometry" />
        </mxCell>
        <mxCell id="scSC1ONJ-kp-0vuA-Wr2-28" value="ref" style="shape=umlFrame;whiteSpace=wrap;html=1;strokeWidth=1;fontFamily=Old Standard TT;fontSize=14;" vertex="1" parent="1">
          <mxGeometry x="210" y="173" width="780" height="60" as="geometry" />
        </mxCell>
        <mxCell id="scSC1ONJ-kp-0vuA-Wr2-7" value="&lt;span style=&quot;font-family: &amp;#34;helvetica&amp;#34; ; font-size: 12px&quot;&gt;alt&lt;/span&gt;" style="shape=umlFrame;whiteSpace=wrap;html=1;fontFamily=Old Standard TT;fontSize=14;" vertex="1" parent="1">
          <mxGeometry x="310" y="411" width="390" height="202" as="geometry" />
        </mxCell>
        <mxCell id="scSC1ONJ-kp-0vuA-Wr2-1" value="loop" style="shape=umlFrame;whiteSpace=wrap;html=1;" vertex="1" parent="1">
          <mxGeometry x="290" y="353" width="430" height="280" as="geometry" />
        </mxCell>
      </root>
    </mxGraphModel>
  </diagram>
</mxfile>
